<mxfile host="app.diagrams.net" modified="2023-09-16T11:12:52.691Z" agent="Mozilla/5.0 (Windows NT 10.0; Win64; x64) AppleWebKit/537.36 (KHTML, like Gecko) Chrome/116.0.0.0 Safari/537.36" version="21.6.8" etag="W4SF8tPSKgYi7inhwZLV" type="github">
  <diagram name="第 1 页" id="kZp7LxxOAcp5MPE_c2gu">
    <mxGraphModel>
      <root>
        <mxCell id="0" />
        <mxCell id="1" parent="0" />
      </root>
    </mxGraphModel>
  </diagram>
</mxfile>
